<?xml version="1.0" encoding="UTF-8"?>
<svg width="56px" height="50px" viewBox="0 0 56 50" version="1.1" xmlns="http://www.w3.org/2000/svg" xmlns:xlink="http://www.w3.org/1999/xlink">
    <!-- Generator: Sketch 47.1 (45422) - http://www.bohemiancoding.com/sketch -->
    <title>Group</title>
    <desc>Created with Sketch.</desc>
    <defs></defs>
    <g id="Welcome" stroke="none" stroke-width="1" fill="none" fill-rule="evenodd" stroke-linecap="round" stroke-linejoin="round">
        <g id="Desktop-HD" transform="translate(-1110.000000, -1466.000000)" stroke="#3C88B5">
            <g id="Page-1" transform="translate(1093.000000, 1441.000000)">
                <g id="Group-61" transform="translate(6.122881, 0.331408)">
                    <g id="Group" transform="translate(12.000000, 25.000000)">
                        <path d="M30.3934619,34.9769314 L23.5419576,34.9769314 C22.9033771,34.9769314 22.3858136,34.4581588 22.3858136,33.8180866 L22.3858136,28.9512996 C22.3858136,28.3112274 22.9033771,27.7924549 23.5419576,27.7924549 L30.3934619,27.7924549 C31.0320424,27.7924549 31.5496059,28.3112274 31.5496059,28.9512996 L31.5496059,33.8180866 C31.5496059,34.4581588 31.0320424,34.9769314 30.3934619,34.9769314 Z" id="Stroke-31"></path>
                        <path d="M23.2977267,27.7859567 L23.2977267,26.8094224 C23.2977267,24.7549097 24.9440614,23.0830686 26.9674936,23.0830686 C28.9916462,23.0830686 30.6376208,24.7549097 30.6376208,26.8094224 L30.6376208,27.7859567" id="Stroke-33"></path>
                        <path d="M25.7879386,31.7444043 L25.7879386,31.2765343 C25.7879386,30.6238267 26.315947,30.0942238 26.9674936,30.0942238 C27.6194004,30.0942238 28.1477691,30.6238267 28.1477691,31.2765343 L28.1477691,31.7444043" id="Stroke-35"></path>
                        <path d="M24.9659597,14.0584116 L14.4713411,32.0143682" id="Stroke-37"></path>
                        <path d="M9.03126907,34.5312996 L20.8124131,14.3529603" id="Stroke-39"></path>
                        <path d="M13.9421081,39.149501 L35.9898835,39.149501" id="Stroke-41"></path>
                        <path d="M39.9932034,42.1565088 L20.5779068,42.1565088" id="Stroke-43"></path>
                        <path d="M34.8650021,17.4329964 L41.9502564,29.5005054" id="Stroke-45"></path>
                        <path d="M41.9502203,36.2686643 L29.5679534,15.2199278" id="Stroke-47"></path>
                        <path d="M0.0105,41.4151986 C0.0105,37.5588809 3.12920763,34.4328881 6.97653814,34.4328881 C10.8231483,34.4328881 13.9422161,37.5588809 13.9422161,41.4151986 C13.9422161,45.2715162 10.8231483,48.397509 6.97653814,48.397509" id="Stroke-49"></path>
                        <path d="M6.9764661,45.8227798 C4.55144492,45.8227798 2.57915678,43.8455235 2.57915678,41.4151986 C2.57915678,38.9848736 4.55144492,37.0076173 6.9764661,37.0076173 C9.40112712,37.0076173 11.3734153,38.9848736 11.3734153,41.4151986 C11.3734153,43.8455235 9.40112712,45.8227798 6.9764661,45.8227798 Z" id="Stroke-51"></path>
                        <path d="M53.9247754,41.4151986 C53.9247754,45.2715162 50.8060678,48.397509 46.9590975,48.397509 C43.1121271,48.397509 39.9930593,45.2715162 39.9930593,41.4151986 C39.9930593,37.5588809 43.1121271,34.4328881 46.9590975,34.4328881" id="Stroke-53"></path>
                        <path d="M46.9591695,45.8227798 C44.5345085,45.8227798 42.5618602,43.8455235 42.5618602,41.4151986 C42.5618602,38.9848736 44.5345085,37.0076173 46.9591695,37.0076173 C49.3838305,37.0076173 51.3564788,38.9848736 51.3564788,41.4151986 C51.3564788,43.8455235 49.3838305,45.8227798 46.9591695,45.8227798 Z" id="Stroke-55"></path>
                        <path d="M26.9676377,14.3513718 C23.1203072,14.3513718 20.0015996,11.2257401 20.0015996,7.36942238 C20.0015996,3.5134657 23.1203072,0.387111913 26.9676377,0.387111913 C30.8149682,0.387111913 33.9336758,3.5134657 33.9336758,7.36942238" id="Stroke-57"></path>
                        <path d="M26.9676377,11.7766787 C24.5429767,11.7766787 22.5703284,9.79942238 22.5703284,7.36909747 C22.5703284,4.93877256 24.5429767,2.96151625 26.9676377,2.96151625 C29.3922987,2.96151625 31.364947,4.93877256 31.364947,7.36909747 C31.364947,9.79942238 29.3922987,11.7766787 26.9676377,11.7766787 Z" id="Stroke-59"></path>
                    </g>
                </g>
            </g>
        </g>
    </g>
</svg>