<?xml version="1.0" encoding="UTF-8"?>
<svg width="40px" height="62px" viewBox="0 0 40 62" version="1.1" xmlns="http://www.w3.org/2000/svg" xmlns:xlink="http://www.w3.org/1999/xlink">
    <!-- Generator: Sketch 47.1 (45422) - http://www.bohemiancoding.com/sketch -->
    <title>Group 96</title>
    <desc>Created with Sketch.</desc>
    <defs></defs>
    <g id="Welcome" stroke="none" stroke-width="1" fill="none" fill-rule="evenodd" stroke-linecap="round" stroke-linejoin="round">
        <g id="Desktop-HD" transform="translate(-291.000000, -1261.000000)" stroke="#3C88B5">
            <g id="Page-1" transform="translate(269.000000, 1241.000000)">
                <g id="Group-96" transform="translate(22.690678, 20.548014)">
                    <path d="M23.7413644,23.8018773 L21.0228051,23.8018773 C20.865411,23.8018773 20.7375508,23.6740794 20.7375508,23.5159567 L20.7375508,18.7636101 C20.7375508,18.6058484 20.865411,18.4776895 21.0228051,18.4776895 L23.7413644,18.4776895 C23.8987585,18.4776895 24.0266186,18.6058484 24.0266186,18.7636101 L24.0266186,23.5159567 C24.0266186,23.6740794 23.8987585,23.8018773 23.7413644,23.8018773 Z" id="Stroke-36"></path>
                    <path d="M13.0576208,23.8018773 L10.3390614,23.8018773 C10.1816674,23.8018773 10.0538072,23.6740794 10.0538072,23.5159567 L10.0538072,18.7636101 C10.0538072,18.6058484 10.1816674,18.4776895 10.3390614,18.4776895 L13.0576208,18.4776895 C13.2150148,18.4776895 13.342875,18.6058484 13.342875,18.7636101 L13.342875,23.5159567 C13.342875,23.6740794 13.2150148,23.8018773 13.0576208,23.8018773 Z" id="Stroke-38"></path>
                    <path d="M34.4141949,23.8018773 L31.6952754,23.8018773 C31.5378814,23.8018773 31.4100212,23.6740794 31.4100212,23.5159567 L31.4100212,18.7636101 C31.4100212,18.6058484 31.5378814,18.4776895 31.6952754,18.4776895 L34.4141949,18.4776895 C34.571589,18.4776895 34.699089,18.6058484 34.699089,18.7636101 L34.699089,23.5159567 C34.699089,23.6740794 34.571589,23.8018773 34.4141949,23.8018773 Z" id="Stroke-40"></path>
                    <polyline id="Stroke-42" points="5.11491102 37.8737184 6.67192373 36.2538628 6.67192373 41.5780505"></polyline>
                    <path d="M5.48775847,41.095774 L7.75718644,41.095774" id="Stroke-44"></path>
                    <polyline id="Stroke-46" points="15.7712097 37.8737184 17.3278623 36.2538628 17.3278623 41.5780505"></polyline>
                    <path d="M16.1440572,41.095774 L18.4134852,41.095774" id="Stroke-48"></path>
                    <path d="M13.0140042,41.5779783 L10.2950847,41.5779783 C10.1380508,41.5779783 10.0101907,41.4501805 10.0101907,41.2920578 L10.0101907,36.5397112 C10.0101907,36.3819495 10.1380508,36.2537906 10.2950847,36.2537906 L13.0140042,36.2537906 C13.1713983,36.2537906 13.2992585,36.3819495 13.2992585,36.5397112 L13.2992585,41.2920578 C13.2992585,41.4501805 13.1713983,41.5779783 13.0140042,41.5779783 Z" id="Stroke-50"></path>
                    <polyline id="Stroke-52" points="26.2956144 37.8737184 27.8526271 36.2538628 27.8526271 41.5780505"></polyline>
                    <path d="M26.668786,41.095774 L28.938214,41.095774" id="Stroke-54"></path>
                    <path d="M23.6865106,41.5779783 L20.9679513,41.5779783 C20.8105572,41.5779783 20.682697,41.4501805 20.682697,41.2920578 L20.682697,36.5397112 C20.682697,36.3819495 20.8105572,36.2537906 20.9679513,36.2537906 L23.6865106,36.2537906 C23.8439047,36.2537906 23.9717648,36.3819495 23.9717648,36.5397112 L23.9717648,41.2920578 C23.9717648,41.4501805 23.8439047,41.5779783 23.6865106,41.5779783 Z" id="Stroke-56"></path>
                    <path d="M12.3031737,11.5107581 C12.3031737,13.3010108 10.8549322,14.7526354 9.06921186,14.7526354 C7.28277119,14.7526354 5.83452966,13.3010108 5.83452966,11.5107581 C5.83452966,9.72050542 7.28277119,8.26888087 9.06921186,8.26888087 C10.8549322,8.26888087 12.3031737,9.72050542 12.3031737,11.5107581 Z" id="Stroke-58"></path>
                    <path d="M32.1722839,48.2293502 C32.1722839,50.0196029 30.7240424,51.4712274 28.9379619,51.4712274 C27.1518814,51.4712274 25.7036398,50.0196029 25.7036398,48.2293502 C25.7036398,46.4390975 27.1518814,44.9874729 28.9379619,44.9874729 C30.7240424,44.9874729 32.1722839,46.4390975 32.1722839,48.2293502 Z" id="Stroke-60"></path>
                    <path d="M5.23978178,21.4359206 C5.23978178,22.8478339 4.09804449,23.9925993 2.68942161,23.9925993 C1.28079873,23.9925993 0.138701271,22.8478339 0.138701271,21.4359206 C0.138701271,20.0240072 1.28079873,18.8792419 2.68942161,18.8792419 C4.09804449,18.8792419 5.23978178,20.0240072 5.23978178,21.4359206 Z" id="Stroke-62"></path>
                    <path d="M37.2734004,30.4899278 C37.2734004,31.9018412 36.131303,33.0466065 34.7226801,33.0466065 C33.3144174,33.0466065 32.1723199,31.9018412 32.1723199,30.4899278 C32.1723199,29.0780144 33.3144174,27.9332491 34.7226801,27.9332491 C36.131303,27.9332491 37.2734004,29.0780144 37.2734004,30.4899278 Z" id="Stroke-64"></path>
                    <path d="M38.0781631,39.5661372 C38.0781631,40.9780505 36.9360657,42.1228159 35.5274428,42.1228159 C34.1188199,42.1228159 32.9770826,40.9780505 32.9770826,39.5661372 C32.9770826,38.1542238 34.1188199,37.0094585 35.5274428,37.0094585 C36.9360657,37.0094585 38.0781631,38.1542238 38.0781631,39.5661372 Z" id="Stroke-66"></path>
                    <path d="M5.4567839,30.4899278 C5.4567839,31.6242238 4.5394322,32.5433574 3.40813983,32.5433574 C2.27648729,32.5433574 1.35949576,31.6242238 1.35949576,30.4899278 C1.35949576,29.3556318 2.27648729,28.4364982 3.40813983,28.4364982 C4.5394322,28.4364982 5.4567839,29.3556318 5.4567839,30.4899278 Z" id="Stroke-68"></path>
                    <path d="M21.2483072,48.2293502 C21.2483072,49.1596751 20.495553,49.9141877 19.5673962,49.9141877 C18.6392394,49.9141877 17.8864852,49.1596751 17.8864852,48.2293502 C17.8864852,47.2986643 18.6392394,46.5445126 19.5673962,46.5445126 C20.495553,46.5445126 21.2483072,47.2986643 21.2483072,48.2293502 Z" id="Stroke-70"></path>
                    <path d="M21.1178178,11.5107581 C21.1178178,12.441444 20.3650636,13.1955957 19.4369068,13.1955957 C18.5083898,13.1955957 17.7559958,12.441444 17.7559958,11.5107581 C17.7559958,10.5804332 18.5083898,9.82592058 19.4369068,9.82592058 C20.3650636,9.82592058 21.1178178,10.5804332 21.1178178,11.5107581 Z" id="Stroke-72"></path>
                    <path d="M12.3031737,11.0256955 L17.7561398,11.0256955" id="Stroke-74"></path>
                    <path d="M21.00775,57.2050903 C21.00775,58.995343 19.5595085,60.4469675 17.7737881,60.4469675 C15.9873475,60.4469675 14.5391059,58.995343 14.5391059,57.2050903 C14.5391059,55.4148375 15.9873475,53.963213 17.7737881,53.963213 C19.5595085,53.963213 21.00775,55.4148375 21.00775,57.2050903 Z" id="Stroke-76"></path>
                    <path d="M29.8223941,57.2050903 C29.8223941,58.1357762 29.0696398,58.8899278 28.1414831,58.8899278 C27.2129661,58.8899278 26.460572,58.1357762 26.460572,57.2050903 C26.460572,56.2744043 27.2129661,55.5202527 28.1414831,55.5202527 C29.0696398,55.5202527 29.8223941,56.2744043 29.8223941,57.2050903 Z" id="Stroke-78"></path>
                    <path d="M21.00775,57.1331493 L26.4607161,57.1331493" id="Stroke-80"></path>
                    <path d="M20.4520085,3.51512635 C20.4520085,5.30574007 21.90025,6.75700361 23.6859703,6.75700361 C25.472411,6.75700361 26.9206525,5.30574007 26.9206525,3.51512635 C26.9206525,1.72487365 25.472411,0.273610108 23.6859703,0.273610108 C21.90025,0.273610108 20.4520085,1.72487365 20.4520085,3.51512635 Z" id="Stroke-82"></path>
                    <path d="M11.6377246,3.51512635 C11.6377246,4.44581227 12.3901186,5.1999639 13.3182754,5.1999639 C14.2467924,5.1999639 14.9991864,4.44581227 14.9991864,3.51512635 C14.9991864,2.58480144 14.2467924,1.83028881 13.3182754,1.83028881 C12.3901186,1.83028881 11.6377246,2.58480144 11.6377246,3.51512635 Z" id="Stroke-84"></path>
                    <path d="M20.4520085,3.00700786 L14.9990424,3.00700786" id="Stroke-86"></path>
                    <path d="M5.23978178,21.049055 L7.57620127,21.049055" id="Stroke-88"></path>
                    <path d="M5.4567839,30.0700786 L32.1723559,30.0700786" id="Stroke-90"></path>
                    <path d="M30.6482627,39.0911021 L32.6324364,39.0911021" id="Stroke-92"></path>
                    <path d="M21.2483072,48.1121257 L25.7036038,48.1121257" id="Stroke-94"></path>
                </g>
            </g>
        </g>
    </g>
</svg>