<?xml version="1.0" encoding="UTF-8"?>
<svg width="65px" height="54px" viewBox="0 0 65 54" version="1.1" xmlns="http://www.w3.org/2000/svg" xmlns:xlink="http://www.w3.org/1999/xlink">
    <!-- Generator: Sketch 47.1 (45422) - http://www.bohemiancoding.com/sketch -->
    <title>Group 70</title>
    <desc>Created with Sketch.</desc>
    <defs></defs>
    <g id="Welcome" stroke="none" stroke-width="1" fill="none" fill-rule="evenodd" stroke-linecap="round" stroke-linejoin="round">
        <g id="Desktop-HD" transform="translate(-269.000000, -1419.000000)" stroke="#3C88B5">
            <g id="Page-1" transform="translate(258.000000, 1390.000000)">
                <g id="Group-70" transform="translate(12.245763, 29.573285)">
                    <path d="M0.0712055085,23.7262816 L0.0712055085,3.93530686 C0.0712055085,1.81184116 1.78489195,0.0941516245 3.9034089,0.0941516245 L58.9185784,0.0941516245 C61.0370953,0.0941516245 62.7561843,1.81184116 62.7561843,3.93530686 L62.7561843,22.4963177" id="Stroke-34"></path>
                    <path d="M61.4818326,40.6715884 C62.0343326,39.6712274 62.3242691,38.5455957 62.3242691,37.4019134 L62.3242691,26.423935 C62.3242691,25.6658123 62.0127225,24.9203249 61.4152013,24.4546209 C60.675053,23.8777256 59.5383581,23.6502888 58.150625,25.5770036 L58.150625,23.7726715 C58.150625,22.7921661 57.5196081,21.8636462 56.5586758,21.6549819 C56.3616631,21.6141877 56.1596081,21.5968592 55.9510699,21.6141877 C54.8684004,21.6723105 53.7799682,23.3549819 53.6067267,23.523213 L53.6067267,21.6434296 C53.6067267,20.7495668 53.0509852,19.890722 52.1883792,19.6820578 C51.985964,19.6300722 51.7716631,19.6123827 51.5570021,19.6354874 C50.8222564,19.6997473 50.1739513,20.1809747 49.8732097,20.8835018 C49.7280614,21.1968592 49.5836335,21.5152708 49.4330826,21.8347653 L49.4330826,13.1603971 C49.4330826,12.0755596 48.7152648,11.0658123 47.6556462,10.8629242 C47.5400318,10.8455957 47.4244174,10.8340433 47.3084428,10.8282671 C47.0883792,10.8167148 46.8744386,10.8340433 46.6659004,10.8860289 C45.6415784,11.1185199 44.9640996,12.1044404 44.9698623,13.1546209 C44.975625,16.5838628 44.975625,20.0073285 44.9813877,23.4304332 C44.9813877,24.6084116 44.9871504,25.7802527 44.9871504,26.9524549 C44.9871504,26.9871119 45.0105614,27.3293502 44.7382733,27.5618412 C44.5416208,27.723935 44.2693326,27.7643682 44.0262182,27.6715884 L43.9570657,27.5733935 L42.6546928,25.7163538 C42.6546928,25.7163538 41.6065996,23.6625632 40.066875,23.4304332 C40.0553496,23.424657 40.0495869,23.424657 40.0380614,23.424657 C39.9278496,23.4073285 39.8179979,23.4127437 39.7139089,23.4304332 C39.0828919,23.5405415 38.6604131,24.2311552 38.9265784,24.8748375 L40.0319386,27.5733935 L45.0314513,39.1297112 C45.2907733,39.7289892 45.6340148,40.2881949 46.0510911,40.790361" id="Stroke-36"></path>
                    <path d="M61.7294492,51.5572563 L46.4258475,51.5572563 C45.925572,51.5572563 45.5203814,51.1507581 45.5203814,50.6496751 L45.5203814,43.2763899 C45.5203814,42.7749458 45.925572,42.3684477 46.4258475,42.3684477 L61.7294492,42.3684477 C62.2297246,42.3684477 62.6349153,42.7749458 62.6349153,43.2763899 L62.6349153,50.6496751 C62.6349153,51.1507581 62.2297246,51.5572563 61.7294492,51.5572563 Z" id="Stroke-38"></path>
                    <path d="M2.67080085,40.6715884 C2.11830085,39.6712274 1.82836441,38.5455957 1.82836441,37.4019134 L1.82836441,26.423935 C1.82836441,25.6658123 2.14027119,24.9203249 2.73779237,24.4546209 C3.47794068,23.8777256 4.61427542,23.6502888 6.00200847,25.5770036 L6.00200847,23.7726715 C6.00200847,22.7921661 6.63302542,21.8636462 7.59395763,21.6549819 C7.79097034,21.6141877 7.99338559,21.5968592 8.20156356,21.6141877 C9.28423305,21.6723105 10.3726653,23.3549819 10.5462669,23.523213 L10.5462669,21.6434296 C10.5462669,20.7495668 11.1020085,19.890722 11.9646144,19.6820578 C12.1670297,19.6300722 12.3813305,19.6123827 12.5956314,19.6354874 C13.3307373,19.6997473 13.9786822,20.1809747 14.2797839,20.8835018 C14.424572,21.1968592 14.5693602,21.5152708 14.719911,21.8347653 L14.719911,13.1603971 C14.719911,12.0755596 15.4373686,11.0658123 16.4969873,10.8629242 C16.6126017,10.8455957 16.7282161,10.8340433 16.8445508,10.8282671 C17.0642542,10.8167148 17.2785551,10.8340433 17.4867331,10.8860289 C18.5110551,11.1185199 19.1885339,12.1044404 19.1831314,13.1546209 C19.1770085,16.5838628 19.1770085,20.0073285 19.1712458,23.4304332 C19.1712458,24.6084116 19.1654831,25.7802527 19.1654831,26.9524549 C19.1654831,26.9871119 19.142072,27.3293502 19.4143602,27.5618412 C19.6110127,27.723935 19.8833008,27.7643682 20.1264153,27.6715884 L20.195928,27.5733935 L21.4983008,25.7163538 C21.4983008,25.7163538 22.5460339,23.6625632 24.0857585,23.4304332 C24.0972839,23.424657 24.1034068,23.424657 24.114572,23.424657 C24.2247839,23.4073285 24.3346356,23.4127437 24.4387246,23.4304332 C25.0697415,23.5405415 25.4922203,24.2311552 25.2260551,24.8748375 L24.1206949,27.5733935 L19.1215424,39.1297112 C18.8618602,39.7289892 18.5186186,40.2881949 18.1019025,40.790361" id="Stroke-40"></path>
                    <path d="M2.42318432,51.5572563 L17.726786,51.5572563 C18.2270614,51.5572563 18.6326123,51.1507581 18.6326123,50.6496751 L18.6326123,43.2763899 C18.6326123,42.7749458 18.2270614,42.3684477 17.7271462,42.3684477 L2.42318432,42.3684477 C1.92326907,42.3684477 1.51771822,42.7749458 1.51771822,43.2763899 L1.51771822,50.6496751 C1.51771822,51.1507581 1.92326907,51.5572563 2.42318432,51.5572563 Z" id="Stroke-42"></path>
                    <path d="M24.4543919,40.983574 L24.4543919,47.7904332 C24.4543919,50.4518051 26.6067648,52.6084838 29.2615742,52.6084838 L31.152464,52.6084838 C33.8072733,52.6084838 35.959286,50.4518051 35.959286,47.7904332 L35.959286,40.983574 C35.959286,39.215704 34.5294131,37.782491 32.765303,37.782491 L27.648375,37.782491 C25.884625,37.782491 24.4543919,39.215704 24.4543919,40.983574 Z" id="Stroke-44"></path>
                    <path d="M30.206911,40.2294946 L30.206911,40.2294946 C30.7244746,40.2294946 31.1447924,40.6504332 31.1447924,41.1695668 L31.1447924,42.0919495 C31.1447924,42.611083 30.7244746,43.0320217 30.206911,43.0320217 C29.6893475,43.0320217 29.2690297,42.611083 29.2690297,42.0919495 L29.2690297,41.1695668 C29.2690297,40.6504332 29.6893475,40.2294946 30.206911,40.2294946 Z" id="Stroke-46"></path>
                    <path d="M30,37.7827798 L30,27.5733935" id="Stroke-48"></path>
                    <polyline id="Stroke-50" points="9.0335911 6.81974729 9.0335911 8.38256318 5.45386653 8.38256318 5.45386653 4.79447653 7.50287076 4.79447653"></polyline>
                    <polyline id="Stroke-52" points="18.6772373 6.81974729 18.6772373 8.38256318 15.0975127 8.38256318 15.0975127 4.79447653 17.1468771 4.79447653"></polyline>
                    <polyline id="Stroke-54" points="57.3698136 6.81974729 57.3698136 8.38256318 53.790089 8.38256318 53.790089 4.79447653 55.8390932 4.79447653"></polyline>
                    <polyline id="Stroke-56" points="28.6086589 6.81974729 28.6086589 8.38256318 25.0285742 8.38256318 25.0285742 4.79447653 27.0779386 4.79447653"></polyline>
                    <polyline id="Stroke-58" points="39.3873432 6.81974729 39.3873432 8.38256318 35.8076186 8.38256318 35.8076186 4.79447653 37.8569831 4.79447653"></polyline>
                    <polyline id="Stroke-60" points="28.6086589 15.0641155 28.6086589 16.6269314 25.0285742 16.6269314 25.0285742 13.0384838 27.0779386 13.0384838"></polyline>
                    <polyline id="Stroke-62" points="39.3873432 15.0641155 39.3873432 16.6269314 35.8076186 16.6269314 35.8076186 13.0384838 37.8569831 13.0384838"></polyline>
                    <polyline id="Stroke-64" points="48.4626419 6.81974729 48.4626419 8.38256318 44.8825572 8.38256318 44.8825572 4.79447653 46.9319216 4.79447653"></polyline>
                    <polyline id="Stroke-66" points="9.0335911 15.0641155 9.0335911 16.6269314 5.45386653 16.6269314 5.45386653 13.0384838 7.50287076 13.0384838"></polyline>
                    <polyline id="Stroke-68" points="57.3698136 15.0641155 57.3698136 16.6269314 53.790089 16.6269314 53.790089 13.0384838 55.8390932 13.0384838"></polyline>
                </g>
            </g>
        </g>
    </g>
</svg>