<svg xmlns="http://www.w3.org/2000/svg">
  
    <symbol id="icon-email" viewBox="0 0 512 512">
      <path d="m421 261l11 14c2 3 2 5 2 7 0 3-1 4-3 6-8 6-20 16-36 28-16 12-30 23-42 32-12 10-19 15-19 15-8 6-13 11-17 14-4 3-10 7-18 12-7 4-15 8-22 10-7 2-14 3-21 3l0 0c-7 0-14-1-21-3-7-2-15-6-22-10-8-5-13-9-18-12-4-3-9-8-17-14-1-1-7-5-18-14-12-9-25-20-41-32-16-12-28-21-35-27-2-2-4-3-4-6 0-2 0-4 2-7l11-14c1-3 3-4 6-4 2-1 5 0 7 2 18 14 47 36 87 67 1 1 5 4 13 10 7 6 13 11 17 14 4 3 9 6 16 9 7 3 12 5 17 5l0 0c5 0 10-2 17-5 7-3 12-6 16-9 4-3 10-8 17-14 8-6 12-9 13-10 49-37 79-60 89-69 2-1 5-2 7-2 3 1 5 2 6 4z m54 205l0-265c-17-16-32-29-45-40-17-14-54-43-111-86-1-1-5-4-12-10-8-7-14-11-18-14-4-3-9-6-16-9-7-4-12-5-17-5l0 0c-5 0-10 1-17 5-7 3-12 6-16 9-4 3-10 7-18 14-7 6-11 9-12 10-41 31-71 55-90 70-19 15-31 25-37 29-6 5-13 12-23 22-3 2-5 4-6 5l0 265c0 3 0 5 2 7 2 2 4 2 7 2l420 0c3 0 5 0 7-2 2-2 2-4 2-7z m37-265l0 265c0 13-4 24-13 33-9 9-20 13-33 13l-420 0c-13 0-24-4-33-13-9-9-13-20-13-33l0-265c0-11 4-19 12-27 23-21 56-49 100-83 43-33 65-51 66-52 7-5 13-10 17-13 5-3 10-7 18-12 7-5 14-8 21-11 8-2 15-3 22-3l0 0c7 0 14 1 22 3 7 3 14 6 21 11 8 5 13 9 18 12 4 3 10 8 17 13 8 7 23 19 44 35 22 17 43 34 65 51 21 17 41 34 57 49 8 8 12 16 12 27z"/>
    </symbol>
  
    <symbol id="icon-facebook-f" viewBox="0 0 512 512">
      <path d="m384 3l0 76-45 0c-17 0-28 3-33 10-6 7-9 17-9 31l0 54 84 0-11 85-73 0 0 216-87 0 0-216-73 0 0-85 73 0 0-62c0-36 10-63 29-83 20-19 47-29 80-29 28 0 49 1 65 3z"/>
    </symbol>
  
    <symbol id="icon-github" viewBox="0 0 512 512">
      <path d="m256 37c40 0 77 9 110 29 34 20 60 46 80 80 20 33 29 70 29 110 0 48-14 91-41 129-28 38-64 65-109 79-5 1-9 1-11-2-2-2-4-5-4-8 0-1 0-8 0-22 0-14 0-27 0-39 0-18-5-32-15-40 11-1 21-3 29-5 9-3 18-6 27-11 10-6 17-12 23-19 7-8 12-18 16-30 3-13 5-27 5-43 0-23-7-43-22-59 7-18 6-37-2-59-6-1-13 0-24 4-10 3-18 8-26 12l-11 7c-17-5-36-7-55-7-18 0-37 2-54 7-3-2-8-5-13-8-5-3-13-6-23-11-11-4-19-5-25-4-8 22-9 41-2 59-15 16-23 36-23 59 0 16 2 30 6 42 4 13 9 23 15 30 6 8 14 14 23 20 10 5 18 8 27 11 9 2 19 4 29 5-7 7-12 17-14 29-4 2-8 4-12 5-5 1-10 1-17 1-6 0-12-2-18-6-7-4-12-10-16-18-4-6-9-11-14-15-6-4-10-6-14-7l-6-1c-4 0-7 1-8 2-2 1-2 2-2 3 1 1 2 3 3 4 1 1 2 2 4 3l2 2c4 2 8 5 12 11 4 5 7 10 9 14l3 7c2 7 7 13 12 17 6 5 13 8 20 9 6 1 13 2 19 2 7 0 12 0 16-1l7-1c0 7 0 16 0 25 0 10 0 15 0 16 0 3-1 6-4 8-2 3-6 3-11 2-44-14-80-41-108-79-28-38-42-81-42-129 0-40 10-77 29-110 20-34 47-60 80-80 34-20 71-29 110-29z m-136 315c0-2 0-3-2-4-2 0-3 0-4 1-1 1 0 2 2 3 2 1 3 1 4 0z m9 9c1-1 1-2-1-4-2-2-3-2-5-1-1 1-1 2 1 5 2 1 3 2 5 0z m8 13c2-1 2-3 0-5-1-3-3-3-5-2-1 1-1 3 0 5 2 3 4 3 5 2z m12 12c2-1 1-3-1-5-2-2-4-3-6-1-1 2-1 3 1 5 3 3 5 3 6 1z m16 7c1-2 0-3-3-4-3-1-5 0-6 2 0 2 1 3 4 4 3 1 5 1 5-2z m18 2c0-3-1-4-4-3-3 0-5 1-5 3 0 2 2 3 5 3 3 0 4-1 4-3z m17-3c0-2-2-3-5-3-3 1-5 2-4 5 0 2 2 3 5 2 3-1 4-2 4-4z"/>
    </symbol>
  
    <symbol id="icon-medium" viewBox="0 0 512 512">
      <path d="m171 120l0 335c0 5-2 9-4 13-2 3-6 5-10 5-4 0-7-1-10-3l-133-66c-4-2-7-5-10-10-3-4-4-9-4-13l0-326c0-4 1-7 3-10 2-2 5-4 8-4 3 0 7 2 13 5l146 73c0 0 1 1 1 1z m18 29l152 248-152-76z m323 5l0 301c0 5-1 9-4 12-3 3-6 4-11 4-4 0-9-1-13-3l-126-63z m-1-34c0 1-24 41-73 120-49 79-78 126-86 139l-111-181 92-151c3-5 8-8 15-8 3 0 5 1 7 2l155 77c1 1 1 1 1 2z"/>
    </symbol>
  
    <symbol id="icon-reddit" viewBox="0 0 512 512">
      <path d="m313 333c3 3 3 6 0 9-12 12-31 18-57 18-26 0-45-6-57-18-3-3-3-6 0-9 1-1 3-1 4-1 2 0 4 0 5 1 9 10 25 14 48 14 23 0 39-4 48-14 1-1 3-1 5-1 1 0 3 0 4 1z m-88-51c0 7-2 13-7 18-5 5-11 7-18 7-7 0-13-2-18-7-5-5-8-11-8-18 0-8 3-14 8-19 5-5 11-7 18-7 7 0 13 3 18 8 5 5 7 11 7 18z m113 0c0 7-3 13-8 18-5 5-11 7-18 7-7 0-13-2-18-7-5-5-7-11-7-18 0-7 2-13 7-18 5-5 11-8 18-8 7 0 13 2 18 7 5 5 8 11 8 19z m72-35c0-9-4-17-10-24-7-6-15-10-25-10-9 0-17 4-24 11-25-17-55-27-89-28l18-81 57 13c0 7 3 13 8 18 5 5 11 8 18 8 7 0 13-3 18-8 5-5 7-11 7-18 0-7-2-13-7-18-5-5-11-8-18-8-11 0-18 5-23 15l-63-14c-4-1-6 0-8 4l-19 89c-35 2-64 11-89 28-6-7-15-11-24-11-10 0-18 4-25 10-6 7-10 15-10 24 0 7 2 13 6 19 3 5 8 9 14 12-1 5-2 11-2 16 0 27 13 50 40 70 27 19 59 29 96 29 38 0 70-10 97-29 27-20 40-43 40-70 0-6-1-11-2-16 6-3 10-7 14-12 3-6 5-12 5-19z m102 9c0 35-7 68-20 99-14 32-32 59-55 82-23 23-50 41-82 55-31 13-64 20-99 20-35 0-68-7-99-20-32-14-59-32-82-55-23-23-41-50-55-82-13-31-20-64-20-99 0-35 7-68 20-99 14-32 32-59 55-82 23-23 50-41 82-55 31-13 64-20 99-20 35 0 68 7 99 20 32 14 59 32 82 55 23 23 41 50 55 82 13 31 20 64 20 99z"/>
    </symbol>
  
    <symbol id="icon-telegram" viewBox="0 0 512 512">
      <path d="m340 373l42-198c1-8 0-14-3-18-4-3-9-4-15-2l-247 96c-5 2-9 4-11 7-2 2-2 5-1 7 2 3 5 5 9 6l63 20 147-93c4-2 7-3 9-1 1 1 1 2-1 4l-119 107-4 65c4 0 9-2 13-6l31-30 64 47c12 7 19 4 23-11z m172-117c0 35-7 68-20 99-14 32-32 59-55 82-23 23-50 41-82 55-31 13-64 20-99 20-35 0-68-7-99-20-32-14-59-32-82-55-23-23-41-50-55-82-13-31-20-64-20-99 0-35 7-68 20-99 14-32 32-59 55-82 23-23 50-41 82-55 31-13 64-20 99-20 35 0 68 7 99 20 32 14 59 32 82 55 23 23 41 50 55 82 13 31 20 64 20 99z"/>
    </symbol>
  
    <symbol id="icon-twitter-square" viewBox="0 0 512 512">
      <path d="m402 174c-10 5-22 8-34 10 13-8 22-19 26-33-12 7-25 12-38 14-12-12-26-19-44-19-16 0-30 6-42 18-12 12-18 26-18 42 0 6 1 10 2 14-25-1-48-8-69-19-22-11-40-25-55-44-6 10-9 20-9 30 0 22 9 39 26 50-9 0-18-2-28-7l0 1c0 14 5 27 14 38 10 11 21 18 35 20-5 2-10 3-14 3-3 0-6-1-11-1 4 12 11 21 21 29 10 8 22 12 35 12-23 17-47 26-75 26-5 0-10 0-14-1 28 18 59 27 92 27 21 0 41-3 60-10 18-7 34-16 48-27 13-12 25-25 34-39 10-15 17-31 22-47 4-16 7-32 7-48 0-3-1-6-1-8 12-8 22-19 30-31z m73-55l0 274c0 23-8 42-24 58-16 16-35 24-58 24l-274 0c-23 0-42-8-58-24-16-16-24-35-24-58l0-274c0-23 8-42 24-58 16-16 35-24 58-24l274 0c23 0 42 8 58 24 16 16 24 35 24 58z"/>
    </symbol>
    <symbol id="icon-btc" viewBox="0 0 512 512">
      <path d="m350 260c-6-4-14-7-25-9 10-4 18-8 25-14 6-5 11-11 14-18 3-7 5-15 5-22 0-11-3-21-9-30-7-9-16-16-27-20-5-2-10-4-16-5l0-41-40 0 0 38-26 0 0-38-40 0 0 38-61 0 0 33 10 0c6 0 10 1 12 2 3 1 4 2 5 4 1 2 1 7 1 14l0 131c0 7 0 11-1 13-1 2-2 4-5 5-2 1-6 1-12 1l-10 0 0 33 61 0 0 39 40 0 0-39 23 0c1 0 2 0 3 0l0 39 40 0 0-42c6-2 12-3 17-5 14-6 25-14 32-24 8-11 12-22 12-35 0-10-3-20-8-28-5-9-11-15-20-20z m-113-83l25 0c16 0 26 1 32 3 6 2 10 5 13 10 3 4 5 9 5 15 0 6-2 12-5 16-3 5-8 8-15 11-6 2-16 3-29 3l-26 0z m73 146c-5 6-11 10-17 12-7 1-15 2-25 2l-17 0c-6 0-9 0-11-1-1 0-2-1-3-3 0-1 0-5 0-13l0-51 30 0c14 0 23 2 30 4 7 3 11 6 15 11 3 5 5 11 5 18 0 8-3 15-7 21z m-55-319c-139 0-253 114-253 254 0 139 114 253 253 253 140 0 254-114 254-253 0-140-114-254-254-254z m0 485c-127 0-231-104-231-231 0-128 104-232 231-232 128 0 232 104 232 232 0 127-104 231-232 231z"/>
    </symbol>
    
  
    <symbol id="icon-mobile" viewBox="0 0 512 512">
      <path d="m393 1l-232 0c-29 0-53 24-53 53l0 402c0 29 24 53 53 53l232 0c29 0 53-24 53-53l0-402c0-29-24-53-53-53z m-264 106l296 0 0 296-296 0z m32-85l232 0c18 0 32 15 32 32l0 32-296 0 0-32c0-17 14-32 32-32z m232 465l-232 0c-18 0-32-14-32-31l0-32 296 0 0 32c0 17-14 31-32 31z m-116-52c-12 0-21 9-21 21 0 11 9 21 21 21 12 0 21-10 21-21 0-12-9-21-21-21z m-53-370l106 0c6 0 10-5 10-11 0-6-4-10-10-10l-106 0c-6 0-10 4-10 10 0 6 4 11 10 11z"/>
    </symbol>
  
    <symbol id="icon-nucleus" viewBox="0 0 512 512">
      <path d="m288 248c0 16-13 29-30 29-16 0-29-13-29-29 0-17 13-30 29-30 17 0 30 13 30 30z m194-19c0-1 0-3 0-5 0-17-13-30-29-30-8 0-14 3-19 7-46-21-107-37-167-44-9-1-19-2-28-3 25-28 50-52 75-69 35-25 64-34 78-24 14 11 15 41 3 82-1 6 2 12 8 14 5 1 11-2 13-8 15-52 11-89-11-105-23-16-60-8-104 23-29 21-60 51-89 86-23-1-46-1-68 0-2-11-4-23-5-34-4-42 2-72 18-79 16-8 42 6 71 35 4 4 11 4 15 0 4-4 4-11 0-15-37-38-70-51-95-40-25 12-36 48-31 101 2 11 3 23 6 34-67 8-117 29-121 66-4 28 21 56 70 80 5 2 11 0 14-5 3-5 0-12-5-14-38-19-60-41-58-58 3-22 42-40 104-47 5 21 12 43 21 65-55 91-84 188-41 219 8 5 17 8 27 8 21 0 47-11 76-32 5-3 6-10 3-15-4-4-10-6-15-2-35 25-64 33-78 23-24-16-12-88 38-175 3 8 7 16 11 25 28 60 62 114 97 150 30 30 57 46 80 46 6 0 12-2 18-4 54-25 33-150-15-260-2-4-4-9-6-13-3-5-9-8-14-5-6 2-8 9-6 14 2 4 4 9 6 13 53 121 56 217 25 231-15 8-42-6-72-37-33-35-67-86-94-144-6-13-11-26-16-39 7-12 15-24 23-36 9-12 18-23 27-34 14 0 28 2 43 4 65 7 119 23 158 41 0 1 0 2 0 4 0 16 13 29 30 29 6 0 12-2 17-5 13 11 20 23 19 33-2 15-22 29-56 38-5 2-9 8-7 13 1 5 6 8 10 8 1 0 2 0 3 0 55-16 69-39 71-57 2-19-9-37-28-54z m-304-32c-6 7-11 15-16 22-5-15-9-30-13-44 14-1 30-2 46-1-6 7-12 15-17 23z"/>
    </symbol>
  
    
    <symbol id="icon-registry" viewBox="0 0 512 512">
      <path d="m210 58l-197 0c-6 0-10 4-10 9l0 198c0 5 4 9 10 9l197 0c5 0 9-4 9-9l0-198c0-5-4-9-9-9z m-10 197l-178 0 0-178 178 0z m10 35l-197 0c-6 0-10 5-10 10l0 197c0 6 4 10 10 10l197 0c5 0 9-4 9-10l0-197c0-5-4-10-9-10z m-10 198l-178 0 0-178 178 0z m238-198l-198 0c-5 0-9 5-9 10l0 197c0 6 4 10 9 10l198 0c5 0 9-4 9-10l0-197c0-5-4-10-9-10z m-10 198l-178 0 0-178 178 0z m80-408c-1-3-3-5-6-6l-184-70c-2-1-5-1-7 0-3 1-4 3-5 6l-71 184c-2 5 1 10 6 12l184 71c1 0 2 0 3 0 4 0 8-2 9-6l71-184c1-2 1-5 0-7z m-85 175l-166-63 63-166 166 63z"/>
    </symbol>
  
    <symbol id="icon-settings" viewBox="0 0 512 512">
      <path d="m180 256c-40 0-74 34-74 75 0 40 34 74 74 74 41 0 74-34 74-74 0-41-33-75-74-75z m0 127c-29 0-52-23-52-52 0-30 23-53 52-53 30 0 53 23 53 53 0 29-23 52-53 52z m223-317c-24 0-43 19-43 42 0 24 19 43 43 43 23 0 42-19 42-43 0-23-19-42-42-42z m0 64c-12 0-22-10-22-22 0-11 10-21 22-21 11 0 21 10 21 21 0 12-10 22-21 22z m-49 239l-27-15c1-8 2-16 2-23 0-8-1-16-2-24l26-15c5-3 7-10 4-15l-42-73c-1-2-4-4-6-5-3-1-6 0-9 1l-26 16c-11-10-23-18-39-24l0-31c0-6-5-10-11-10l-84 0c-6 0-11 4-11 10l0 31c-15 5-28 13-41 24l-27-16c-5-3-12-1-15 4l-42 73c-2 3-2 6-1 8 0 3 2 5 5 7l26 15c-1 8-2 16-2 24 0 7 1 15 2 23l-26 15c-6 3-7 10-4 15l42 73c3 5 9 7 14 4l28-16c13 11 26 19 41 24l0 31c0 6 5 10 11 10l84 0c6 0 11-4 11-10l0-31c16-6 28-14 39-24l27 16c2 1 5 2 8 1 3-1 5-3 6-5l42-73c3-5 2-12-3-15z m-52 68l-23-14c-4-2-9-1-13 2-14 12-26 21-45 26-4 1-7 6-7 10l0 28-64 0 0-28c0-4-3-9-7-10-18-5-32-13-47-26-3-3-8-4-12-2l-25 14-32-55 24-14c4-2 6-6 5-11-1-9-2-18-2-26 0-9 1-18 2-27 1-5-1-9-5-11l-24-14 32-55 25 14c4 2 9 1 12-2 15-13 29-21 47-26 4-1 7-6 7-10l0-28 64 0 0 28c0 4 3 9 7 10 19 5 31 14 45 26 4 4 9 4 13 2l23-14 32 55-24 14c-4 2-6 6-5 11 1 9 2 18 2 27 0 9-1 18-2 26-1 5 1 9 5 11l24 14z m199-308l-15-9c1-4 1-8 1-12 0-3 0-7-1-11l15-9c5-3 7-9 4-14l-21-37c-2-2-4-4-7-5-3 0-6 0-8 1l-14 9c-6-5-12-9-19-12l0-17c0-6-5-10-11-10l-42 0c-6 0-11 4-11 10l0 17c-7 3-15 7-21 12l-15-9c-5-2-11-1-14 4l-21 37c-2 2-2 5-2 8 1 3 3 5 5 6l15 9c-1 4-1 8-1 11 0 4 0 8 1 12l-15 9c-2 1-4 3-5 6 0 3 0 6 1 8l22 37c2 5 9 6 14 4l15-9c6 5 14 9 21 12l0 17c0 5 5 10 11 10l42 0c6 0 11-5 11-10l0-17c7-3 13-7 19-12l14 8c3 2 6 2 8 2 3-1 6-3 7-5l21-37c3-5 1-12-4-14z m-30 31l-12-7c-4-2-9-2-12 2-7 6-16 11-25 14-4 2-7 6-7 10l0 14-22 0 0-14c0-4-3-8-7-10-10-3-20-8-26-14-4-4-9-4-13-2l-12 7-11-18 12-7c4-3 6-7 5-12-1-5-2-10-2-15 0-4 1-9 2-14 1-5-1-9-5-12l-12-7 11-18 12 7c4 2 9 2 13-2 6-6 16-11 26-14 4-2 7-6 7-10l0-14 22 0 0 14c0 4 3 8 7 10 9 3 18 8 25 14 3 4 8 4 13 2l11-7 10 18-12 7c-4 3-6 7-5 12 1 5 2 10 2 14 0 5-1 10-2 15-1 5 1 9 5 12l12 7z"/>
    </symbol>
  
    <symbol id="icon-shop" viewBox="0 0 512 512">
      <path d="m500 41l-73 0c-5 0-9 3-11 8l-27 118-373 0c-3 0-6 2-8 5-2 3-3 6-2 9l63 190c2 4 6 7 10 7l260 0-5 21-223 0c-23 0-42 19-42 42 0 23 19 42 42 42 23 0 42-19 42-42 0-8-2-15-6-21l159 0c-4 6-6 13-6 21 0 23 19 42 42 42 24 0 43-19 43-42 0-19-13-35-30-40l8-31c0 0 0 0 0-1l72-307 65 0c6 0 11-5 11-10 0-6-5-11-11-11z m-413 316l-56-169 353 0-40 169z m45 84c0 12-9 21-21 21-12 0-21-9-21-21 0-12 9-21 21-21 12 0 21 9 21 21z m232 0c0 12-10 21-22 21-11 0-21-9-21-21 0-12 10-21 21-21 12 0 22 9 22 21z"/>
    </symbol>
    <symbol id="icon-linkedin" viewBox="0 0 512 512">
      <path d="m136 179l0 283l-94 0l0-283z m6-88c0 14-4 26-14 35c-10 9-23 14-39 14l0 0c-16 0-29-5-38-14c-10-9-14-21-14-35c0-14 4-26 14-35c10-9 23-14 39-14c16 0 28 5 38 14c9 9 14 21 14 35z m333 208l0 163l-94 0l0-152c0-20-3-35-11-47c-8-11-20-17-36-17c-12 0-22 4-30 10c-9 7-15 15-19 25c-2 5-3 13-3 23l0 158l-94 0c1-76 1-138 1-185c0-47 0-76 0-85l-1-13l94 0l0 41l0 0c4-6 7-12 11-16c4-5 10-10 17-15c6-5 15-10 24-13c10-3 21-4 33-4c33 0 59 11 79 32c20 22 29 54 29 95z"/>
    </symbol>
  
    <symbol id="icon-twitter-b" viewBox="0 0 512 512">
      <path d="m481 117c-13 18-28 34-46 47c0 3 0 7 0 12c0 25-3 50-11 74c-7 25-18 49-33 71c-14 23-32 43-52 61c-21 17-45 31-74 41c-29 11-60 16-92 16c-52 0-99-14-142-42c7 1 14 2 22 2c43 0 81-14 115-40c-20 0-38-6-54-18c-16-12-27-27-33-46c7 1 13 2 18 2c8 0 16-1 24-4c-21-4-39-15-53-31c-14-17-21-37-21-59l0-1c13 7 27 11 42 11c-13-8-23-19-30-32c-8-14-11-29-11-44c0-17 4-33 12-47c23 28 51 51 84 68c33 17 69 27 107 29c-2-8-3-15-3-22c0-25 9-47 27-65c18-18 40-27 66-27c26 0 49 10 67 29c21-4 40-11 59-22c-7 22-21 39-41 51c18-2 35-7 53-14z"/>
    </symbol>
</svg>

