<?xml version="1.0" encoding="utf-8"?>
<!-- Generator: Adobe Illustrator 21.1.0, SVG Export Plug-In . SVG Version: 6.00 Build 0)  -->
<svg version="1.1" id="Layer_1" xmlns="http://www.w3.org/2000/svg" xmlns:xlink="http://www.w3.org/1999/xlink" x="0px" y="0px"
	 width="572px" height="349.60413px" viewBox="0 0 572 349.60413" style="enable-background:new 0 0 572 349.60413;"
	 xml:space="preserve">
<style type="text/css">
	.st0{fill:#892F91;}
	.st1{fill:#6B238B;}
	.st2{fill:#74268B;}
</style>
<g>
	<g>
		<polygon class="st0" points="283.91666,142.97079 350.66666,111.36667 350.66666,33.19736 283.91666,64.8015 		"/>
		<polygon class="st1" points="284.16666,142.97079 217.41667,111.36667 217.41667,33.19736 284.16666,64.8015 		"/>
		<polygon class="st2" points="283.91666,64.8015 217.41667,33.19736 282.57501,1.5671 350.66666,33.19736 		"/>
	</g>
	<g>
		<polygon class="st0" points="213.31667,177.0708 280.06668,145.46666 280.06668,67.29736 213.31667,98.9015 		"/>
		<polygon class="st1" points="213.56667,177.0708 146.81667,145.46666 146.81667,67.29736 213.56667,98.9015 		"/>
		<polygon class="st2" points="213.31667,98.9015 146.81667,67.29736 211.97501,35.6671 280.06668,67.29736 		"/>
	</g>
	<g>
		<polygon class="st0" points="142.71666,211.10413 209.46666,179.5 209.46666,101.3307 142.71666,132.93483 		"/>
		<polygon class="st1" points="142.96666,211.10413 76.21667,179.5 76.21667,101.3307 142.96666,132.93483 		"/>
		<polygon class="st2" points="142.71666,132.93483 76.21667,101.3307 141.375,69.70043 209.46666,101.3307 		"/>
	</g>
	<g>
		<polygon class="st0" points="71.85,245.20413 138.60001,213.60001 138.60001,135.43069 71.85,167.03484 		"/>
		<polygon class="st1" points="72.1,245.20413 5.35,213.60001 5.35,135.43069 72.1,167.03484 		"/>
		<polygon class="st2" points="71.85,167.03484 5.35,135.43069 70.50833,103.80043 138.60001,135.43069 		"/>
	</g>
</g>
<g>
	<g>
		<polygon class="st0" points="356.91666,177.97079 423.66666,146.36667 423.66666,68.19736 356.91666,99.8015 		"/>
		<polygon class="st1" points="357.16666,177.97079 290.41666,146.36667 290.41666,68.19736 357.16666,99.8015 		"/>
		<polygon class="st2" points="356.91666,99.8015 290.41666,68.19736 355.57501,36.5671 423.66666,68.19736 		"/>
	</g>
	<g>
		<polygon class="st0" points="286.31668,212.0708 353.06668,180.46666 353.06668,102.29736 286.31668,133.90149 		"/>
		<polygon class="st1" points="286.56668,212.0708 219.81667,180.46666 219.81667,102.29736 286.56668,133.90149 		"/>
		<polygon class="st2" points="286.31668,133.90149 219.81667,102.29736 284.97501,70.6671 353.06668,102.29736 		"/>
	</g>
	<g>
		<polygon class="st0" points="215.71666,246.10413 282.46667,214.5 282.46667,136.33069 215.71666,167.93483 		"/>
		<polygon class="st1" points="215.96666,246.10413 149.21666,214.5 149.21666,136.33069 215.96666,167.93483 		"/>
		<polygon class="st2" points="215.71666,167.93483 149.21666,136.33069 214.375,104.70043 282.46667,136.33069 		"/>
	</g>
	<g>
		<polygon class="st0" points="144.85001,280.20413 211.60001,248.60001 211.60001,170.43069 144.85001,202.03484 		"/>
		<polygon class="st1" points="145.10001,280.20413 78.35,248.60001 78.35,170.43069 145.10001,202.03484 		"/>
		<polygon class="st2" points="144.85001,202.03484 78.35,170.43069 143.50833,138.80043 211.60001,170.43069 		"/>
	</g>
</g>
<g>
	<g>
		<polygon class="st0" points="429.31668,212.3708 496.06668,180.76666 496.06668,102.59736 429.31668,134.20149 		"/>
		<polygon class="st1" points="429.56668,212.3708 362.81668,180.76666 362.81668,102.59736 429.56668,134.20149 		"/>
		<polygon class="st2" points="429.31668,134.20149 362.81668,102.59736 427.97501,70.9671 496.06668,102.59736 		"/>
	</g>
	<g>
		<polygon class="st0" points="358.71667,246.47079 425.46667,214.86667 425.46667,136.69736 358.71667,168.3015 		"/>
		<polygon class="st1" points="358.96667,246.47079 292.21667,214.86667 292.21667,136.69736 358.96667,168.3015 		"/>
		<polygon class="st2" points="358.71667,168.3015 292.21667,136.69736 357.375,105.0671 425.46667,136.69736 		"/>
	</g>
	<g>
		<polygon class="st0" points="288.11667,280.50412 354.86667,248.89999 354.86667,170.7307 288.11667,202.33482 		"/>
		<polygon class="st1" points="288.36667,280.50412 221.61667,248.89999 221.61667,170.7307 288.36667,202.33482 		"/>
		<polygon class="st2" points="288.11667,202.33482 221.61667,170.7307 286.77499,139.10043 354.86667,170.7307 		"/>
	</g>
	<g>
		<polygon class="st0" points="217.25,314.60413 284,283 284,204.83069 217.25,236.43483 		"/>
		<polygon class="st1" points="217.5,314.60413 150.75,283 150.75,204.83069 217.5,236.43483 		"/>
		<polygon class="st2" points="217.25,236.43483 150.75,204.83069 215.90834,173.20044 284,204.83069 		"/>
	</g>
</g>
<g>
	<g>
		<polygon class="st0" points="501.31668,247.3708 568.06665,215.76666 568.06665,137.59737 501.31668,169.20149 		"/>
		<polygon class="st1" points="501.56668,247.3708 434.81668,215.76666 434.81668,137.59737 501.56668,169.20149 		"/>
		<polygon class="st2" points="501.31668,169.20149 434.81668,137.59737 499.97501,105.9671 568.06665,137.59737 		"/>
	</g>
	<g>
		<polygon class="st0" points="430.71667,281.47079 497.46667,249.86667 497.46667,171.69736 430.71667,203.3015 		"/>
		<polygon class="st1" points="430.96667,281.47079 364.21667,249.86667 364.21667,171.69736 430.96667,203.3015 		"/>
		<polygon class="st2" points="430.71667,203.3015 364.21667,171.69736 429.375,140.06709 497.46667,171.69736 		"/>
	</g>
	<g>
		<polygon class="st0" points="360.11667,315.50412 426.86667,283.89999 426.86667,205.7307 360.11667,237.33482 		"/>
		<polygon class="st1" points="360.36667,315.50412 293.61667,283.89999 293.61667,205.7307 360.36667,237.33482 		"/>
		<polygon class="st2" points="360.11667,237.33482 293.61667,205.7307 358.77499,174.10043 426.86667,205.7307 		"/>
	</g>
	<g>
		<polygon class="st0" points="289.25,349.60413 356,318 356,239.83069 289.25,271.43481 		"/>
		<polygon class="st1" points="289.5,349.60413 222.75,318 222.75,239.83069 289.5,271.43481 		"/>
		<polygon class="st2" points="289.25,271.43481 222.75,239.83069 287.90833,208.20044 356,239.83069 		"/>
	</g>
</g>
</svg>
