<svg xmlns="http://www.w3.org/2000/svg">
  
    <symbol id="icon-email" viewBox="0 0 512 512">
      <path d="m421 261l11 14c2 3 2 5 2 7 0 3-1 4-3 6-8 6-20 16-36 28-16 12-30 23-42 32-12 10-19 15-19 15-8 6-13 11-17 14-4 3-10 7-18 12-7 4-15 8-22 10-7 2-14 3-21 3l0 0c-7 0-14-1-21-3-7-2-15-6-22-10-8-5-13-9-18-12-4-3-9-8-17-14-1-1-7-5-18-14-12-9-25-20-41-32-16-12-28-21-35-27-2-2-4-3-4-6 0-2 0-4 2-7l11-14c1-3 3-4 6-4 2-1 5 0 7 2 18 14 47 36 87 67 1 1 5 4 13 10 7 6 13 11 17 14 4 3 9 6 16 9 7 3 12 5 17 5l0 0c5 0 10-2 17-5 7-3 12-6 16-9 4-3 10-8 17-14 8-6 12-9 13-10 49-37 79-60 89-69 2-1 5-2 7-2 3 1 5 2 6 4z m54 205l0-265c-17-16-32-29-45-40-17-14-54-43-111-86-1-1-5-4-12-10-8-7-14-11-18-14-4-3-9-6-16-9-7-4-12-5-17-5l0 0c-5 0-10 1-17 5-7 3-12 6-16 9-4 3-10 7-18 14-7 6-11 9-12 10-41 31-71 55-90 70-19 15-31 25-37 29-6 5-13 12-23 22-3 2-5 4-6 5l0 265c0 3 0 5 2 7 2 2 4 2 7 2l420 0c3 0 5 0 7-2 2-2 2-4 2-7z m37-265l0 265c0 13-4 24-13 33-9 9-20 13-33 13l-420 0c-13 0-24-4-33-13-9-9-13-20-13-33l0-265c0-11 4-19 12-27 23-21 56-49 100-83 43-33 65-51 66-52 7-5 13-10 17-13 5-3 10-7 18-12 7-5 14-8 21-11 8-2 15-3 22-3l0 0c7 0 14 1 22 3 7 3 14 6 21 11 8 5 13 9 18 12 4 3 10 8 17 13 8 7 23 19 44 35 22 17 43 34 65 51 21 17 41 34 57 49 8 8 12 16 12 27z"/>
    </symbol>
  
    <symbol id="icon-facebook-f" viewBox="0 0 512 512">
      <path d="m384 3l0 76-45 0c-17 0-28 3-33 10-6 7-9 17-9 31l0 54 84 0-11 85-73 0 0 216-87 0 0-216-73 0 0-85 73 0 0-62c0-36 10-63 29-83 20-19 47-29 80-29 28 0 49 1 65 3z"/>
    </symbol>
  
    <symbol id="icon-github" viewBox="0 0 512 512">
      <path d="m256 37c40 0 77 9 110 29 34 20 60 46 80 80 20 33 29 70 29 110 0 48-14 91-41 129-28 38-64 65-109 79-5 1-9 1-11-2-2-2-4-5-4-8 0-1 0-8 0-22 0-14 0-27 0-39 0-18-5-32-15-40 11-1 21-3 29-5 9-3 18-6 27-11 10-6 17-12 23-19 7-8 12-18 16-30 3-13 5-27 5-43 0-23-7-43-22-59 7-18 6-37-2-59-6-1-13 0-24 4-10 3-18 8-26 12l-11 7c-17-5-36-7-55-7-18 0-37 2-54 7-3-2-8-5-13-8-5-3-13-6-23-11-11-4-19-5-25-4-8 22-9 41-2 59-15 16-23 36-23 59 0 16 2 30 6 42 4 13 9 23 15 30 6 8 14 14 23 20 10 5 18 8 27 11 9 2 19 4 29 5-7 7-12 17-14 29-4 2-8 4-12 5-5 1-10 1-17 1-6 0-12-2-18-6-7-4-12-10-16-18-4-6-9-11-14-15-6-4-10-6-14-7l-6-1c-4 0-7 1-8 2-2 1-2 2-2 3 1 1 2 3 3 4 1 1 2 2 4 3l2 2c4 2 8 5 12 11 4 5 7 10 9 14l3 7c2 7 7 13 12 17 6 5 13 8 20 9 6 1 13 2 19 2 7 0 12 0 16-1l7-1c0 7 0 16 0 25 0 10 0 15 0 16 0 3-1 6-4 8-2 3-6 3-11 2-44-14-80-41-108-79-28-38-42-81-42-129 0-40 10-77 29-110 20-34 47-60 80-80 34-20 71-29 110-29z m-136 315c0-2 0-3-2-4-2 0-3 0-4 1-1 1 0 2 2 3 2 1 3 1 4 0z m9 9c1-1 1-2-1-4-2-2-3-2-5-1-1 1-1 2 1 5 2 1 3 2 5 0z m8 13c2-1 2-3 0-5-1-3-3-3-5-2-1 1-1 3 0 5 2 3 4 3 5 2z m12 12c2-1 1-3-1-5-2-2-4-3-6-1-1 2-1 3 1 5 3 3 5 3 6 1z m16 7c1-2 0-3-3-4-3-1-5 0-6 2 0 2 1 3 4 4 3 1 5 1 5-2z m18 2c0-3-1-4-4-3-3 0-5 1-5 3 0 2 2 3 5 3 3 0 4-1 4-3z m17-3c0-2-2-3-5-3-3 1-5 2-4 5 0 2 2 3 5 2 3-1 4-2 4-4z"/>
    </symbol>
  
    <symbol id="icon-medium" viewBox="0 0 512 512">
      <path d="m171 120l0 335c0 5-2 9-4 13-2 3-6 5-10 5-4 0-7-1-10-3l-133-66c-4-2-7-5-10-10-3-4-4-9-4-13l0-326c0-4 1-7 3-10 2-2 5-4 8-4 3 0 7 2 13 5l146 73c0 0 1 1 1 1z m18 29l152 248-152-76z m323 5l0 301c0 5-1 9-4 12-3 3-6 4-11 4-4 0-9-1-13-3l-126-63z m-1-34c0 1-24 41-73 120-49 79-78 126-86 139l-111-181 92-151c3-5 8-8 15-8 3 0 5 1 7 2l155 77c1 1 1 1 1 2z"/>
    </symbol>
  
    <symbol id="icon-reddit" viewBox="0 0 512 512">
      <path d="m313 333c3 3 3 6 0 9-12 12-31 18-57 18-26 0-45-6-57-18-3-3-3-6 0-9 1-1 3-1 4-1 2 0 4 0 5 1 9 10 25 14 48 14 23 0 39-4 48-14 1-1 3-1 5-1 1 0 3 0 4 1z m-88-51c0 7-2 13-7 18-5 5-11 7-18 7-7 0-13-2-18-7-5-5-8-11-8-18 0-8 3-14 8-19 5-5 11-7 18-7 7 0 13 3 18 8 5 5 7 11 7 18z m113 0c0 7-3 13-8 18-5 5-11 7-18 7-7 0-13-2-18-7-5-5-7-11-7-18 0-7 2-13 7-18 5-5 11-8 18-8 7 0 13 2 18 7 5 5 8 11 8 19z m72-35c0-9-4-17-10-24-7-6-15-10-25-10-9 0-17 4-24 11-25-17-55-27-89-28l18-81 57 13c0 7 3 13 8 18 5 5 11 8 18 8 7 0 13-3 18-8 5-5 7-11 7-18 0-7-2-13-7-18-5-5-11-8-18-8-11 0-18 5-23 15l-63-14c-4-1-6 0-8 4l-19 89c-35 2-64 11-89 28-6-7-15-11-24-11-10 0-18 4-25 10-6 7-10 15-10 24 0 7 2 13 6 19 3 5 8 9 14 12-1 5-2 11-2 16 0 27 13 50 40 70 27 19 59 29 96 29 38 0 70-10 97-29 27-20 40-43 40-70 0-6-1-11-2-16 6-3 10-7 14-12 3-6 5-12 5-19z m102 9c0 35-7 68-20 99-14 32-32 59-55 82-23 23-50 41-82 55-31 13-64 20-99 20-35 0-68-7-99-20-32-14-59-32-82-55-23-23-41-50-55-82-13-31-20-64-20-99 0-35 7-68 20-99 14-32 32-59 55-82 23-23 50-41 82-55 31-13 64-20 99-20 35 0 68 7 99 20 32 14 59 32 82 55 23 23 41 50 55 82 13 31 20 64 20 99z"/>
    </symbol>
  
    <symbol id="icon-telegram" viewBox="0 0 512 512">
      <path d="m340 373l42-198c1-8 0-14-3-18-4-3-9-4-15-2l-247 96c-5 2-9 4-11 7-2 2-2 5-1 7 2 3 5 5 9 6l63 20 147-93c4-2 7-3 9-1 1 1 1 2-1 4l-119 107-4 65c4 0 9-2 13-6l31-30 64 47c12 7 19 4 23-11z m172-117c0 35-7 68-20 99-14 32-32 59-55 82-23 23-50 41-82 55-31 13-64 20-99 20-35 0-68-7-99-20-32-14-59-32-82-55-23-23-41-50-55-82-13-31-20-64-20-99 0-35 7-68 20-99 14-32 32-59 55-82 23-23 50-41 82-55 31-13 64-20 99-20 35 0 68 7 99 20 32 14 59 32 82 55 23 23 41 50 55 82 13 31 20 64 20 99z"/>
    </symbol>
  
    <symbol id="icon-twitter-square" viewBox="0 0 512 512">
      <path d="m402 174c-10 5-22 8-34 10 13-8 22-19 26-33-12 7-25 12-38 14-12-12-26-19-44-19-16 0-30 6-42 18-12 12-18 26-18 42 0 6 1 10 2 14-25-1-48-8-69-19-22-11-40-25-55-44-6 10-9 20-9 30 0 22 9 39 26 50-9 0-18-2-28-7l0 1c0 14 5 27 14 38 10 11 21 18 35 20-5 2-10 3-14 3-3 0-6-1-11-1 4 12 11 21 21 29 10 8 22 12 35 12-23 17-47 26-75 26-5 0-10 0-14-1 28 18 59 27 92 27 21 0 41-3 60-10 18-7 34-16 48-27 13-12 25-25 34-39 10-15 17-31 22-47 4-16 7-32 7-48 0-3-1-6-1-8 12-8 22-19 30-31z m73-55l0 274c0 23-8 42-24 58-16 16-35 24-58 24l-274 0c-23 0-42-8-58-24-16-16-24-35-24-58l0-274c0-23 8-42 24-58 16-16 35-24 58-24l274 0c23 0 42 8 58 24 16 16 24 35 24 58z"/>
    </symbol>
</svg>

